<svg width="131" height="30" viewBox="0 0 131 30" fill="none" xmlns="http://www.w3.org/2000/svg">
<path d="M21.1411 22.5376C25.208 22.5376 28.5048 19.1691 28.5048 15.0138C28.5048 10.8586 25.208 7.49011 21.1411 7.49011C17.0742 7.49011 13.7773 10.8586 13.7773 15.0138C13.7773 19.1691 17.0742 22.5376 21.1411 22.5376Z" fill="#00B3FF"/>
<path fill-rule="evenodd" clip-rule="evenodd" d="M9.96879 4.39604C15.809 -1.46535 25.2793 -1.46535 31.1195 4.39604C36.9691 10.2574 36.9691 19.7606 31.1195 25.6124C25.2793 31.4641 15.809 31.4641 9.96879 25.6028L0.423203 16.0227C-0.141068 15.4558 -0.141068 14.543 0.423203 13.9761L9.96879 4.39604ZM13.3262 22.797C17.6147 27.1017 24.574 27.1017 28.8625 22.797C33.1509 18.4922 33.1509 11.5162 28.8531 7.21143C24.5646 2.90667 17.6053 2.90667 13.3168 7.21143L6.30102 14.2451C5.88723 14.6679 5.88723 15.3405 6.30102 15.7537L13.3262 22.797Z" fill="#00B3FF"/>
<path d="M39.4231 9.69045L43.6269 13.9856C44.1818 14.5525 44.1818 15.4654 43.6269 16.0419L39.4231 20.337C39.1786 20.5869 38.7554 20.3563 38.8306 20.0007C39.5547 16.7241 39.5547 13.3034 38.8306 10.0268C38.7459 9.67123 39.1691 9.43101 39.4231 9.69045Z" fill="#00B3FF"/>
<path d="M74.9556 6.0347C74.9556 5.42766 75.1446 4.9034 75.5497 4.48951C75.9548 4.07561 76.4409 3.85486 77.062 3.85486C77.6562 3.85486 78.1693 4.07561 78.5744 4.48951C78.9795 4.9034 79.1955 5.42766 79.1955 6.0347C79.1955 6.64175 78.9795 7.16602 78.5744 7.57991C78.1693 7.99381 77.6562 8.18696 77.062 8.18696C76.4679 8.18696 75.9548 7.99381 75.5497 7.57991C75.1716 7.13843 74.9556 6.64175 74.9556 6.0347Z" fill="#00B3FF"/>
<path d="M75.1716 11.0566C75.1716 10.422 75.3607 9.9805 75.7117 9.73216C76.0628 9.48382 76.5489 9.34586 77.1431 9.34586C77.5752 9.34586 77.9533 9.40105 78.3043 9.51142C78.6554 9.62179 78.8715 9.67698 78.9795 9.70457V21.6799H75.1716V11.0566Z" fill="#00B3FF"/>
<path d="M52.4324 13.7605C52.4324 12.9603 52.5674 12.2705 52.8375 11.691C53.1075 11.1116 53.4856 10.6149 53.9717 10.201C54.4578 9.78714 55.025 9.48361 55.6731 9.29046C56.3213 9.09731 57.0504 8.98694 57.8066 8.98694C58.7518 8.98694 59.589 9.1525 60.3452 9.48361C61.0744 9.81473 61.6955 10.2562 62.1546 10.8357C62.6137 10.2562 63.2078 9.81473 63.937 9.48361C64.6662 9.1525 65.5034 8.98694 66.4486 8.98694C67.2048 8.98694 67.9069 9.09731 68.5551 9.29046C69.2032 9.48361 69.7704 9.78714 70.2565 10.201C70.7426 10.6149 71.1207 11.1116 71.3907 11.691C71.6608 12.2705 71.7958 12.9603 71.7958 13.7605V21.6521H67.9879V14.8642C67.9879 14.0364 67.8259 13.457 67.5018 13.0983C67.1778 12.7396 66.7187 12.574 66.0975 12.574C65.4764 12.574 64.9903 12.7948 64.5852 13.2087C64.2071 13.6226 64.018 14.2848 64.018 15.2229V21.6797H60.2102V15.2229C60.2102 14.3124 60.0211 13.6502 59.643 13.2087C59.2649 12.7948 58.7788 12.574 58.1577 12.574C57.5635 12.574 57.0774 12.7396 56.7534 13.0983C56.4023 13.457 56.2402 14.0364 56.2402 14.8642V21.6521H52.4324V13.7605Z" fill="#00B3FF"/>
<path d="M83.0306 4.24117C82.6795 4.4895 82.4905 4.93099 82.4905 5.56563V21.6523H86.2984V4.21357C86.1903 4.18598 85.9743 4.13079 85.6232 4.02042C85.2721 3.91005 84.894 3.85486 84.4619 3.85486C83.8678 3.85486 83.3817 3.99283 83.0306 4.24117Z" fill="#00B3FF"/>
<path d="M93.2653 21.6523C92.7792 20.7693 92.2931 19.8587 91.834 18.9206C91.375 17.9827 90.9427 17.0992 90.5647 16.2992C90.1866 15.4991 89.8625 14.7816 89.6195 14.2298C89.3764 13.6503 89.2144 13.2916 89.1334 13.1261C88.9983 12.7949 88.8633 12.4362 88.7283 12.0499C88.5662 11.636 88.5122 11.2773 88.5122 10.9738C88.5122 10.5323 88.6742 10.146 88.9983 9.8149C89.3224 9.51138 89.7815 9.34583 90.4296 9.34583C90.9428 9.34583 91.3479 9.40101 91.6719 9.51139C91.9954 9.62154 92.1581 9.67697 92.2121 9.70454C92.4821 10.5047 92.7522 11.3049 93.0763 12.1051C93.3148 12.7477 93.5534 13.3547 93.778 13.9262L93.7789 13.9285C93.8336 14.0678 93.8876 14.2051 93.9405 14.3402C94.2105 15.03 94.4536 15.637 94.6966 16.1613C94.9127 16.6856 95.0747 17.0443 95.1827 17.265C95.2428 17.1423 95.3111 16.9771 95.3971 16.7692C95.4658 16.6032 95.546 16.4092 95.6418 16.1889C95.7858 15.8579 95.9298 15.4902 96.0817 15.1021C96.1577 14.908 96.236 14.7079 96.317 14.5057C96.4385 14.2022 96.56 13.8919 96.6815 13.5815C96.8031 13.2711 96.9246 12.9605 97.0462 12.657C97.2892 12.0499 97.5053 11.4981 97.6673 11.0842C97.6913 11.0291 97.7139 10.9754 97.7361 10.9228C97.8139 10.738 97.8863 10.5662 97.9914 10.3944C98.0994 10.1736 98.2614 10.0081 98.4235 9.8425C98.5855 9.67694 98.8016 9.56657 99.0176 9.48379C99.2607 9.40101 99.5577 9.37341 99.8818 9.37341C100.206 9.37341 100.476 9.40101 100.746 9.48379C100.989 9.53897 101.232 9.62176 101.421 9.70454C101.61 9.78732 101.772 9.87009 101.88 9.92527C101.942 9.97281 101.995 10.0021 102.035 10.0237C102.064 10.0397 102.085 10.0515 102.096 10.0632C102.042 10.3668 101.88 10.7807 101.637 11.3877C101.549 11.5978 101.457 11.8224 101.361 12.0589L101.36 12.0621C101.19 12.477 101.006 12.9283 100.8 13.402C100.476 14.147 100.125 14.9472 99.7468 15.775C99.5682 16.166 99.3896 16.5509 99.2138 16.9296L99.2122 16.9332C99.0166 17.3547 98.8241 17.7693 98.6395 18.1756C98.2885 18.9482 97.9374 19.638 97.6133 20.2726C97.2893 20.8796 97.0462 21.3762 96.8842 21.7073L93.2653 21.7075V21.6523Z" fill="#00B3FF"/>
<path d="M110.09 18.4239C108.605 18.4239 107.876 17.5961 107.876 15.9129V9.70454C107.768 9.67694 107.552 9.62176 107.201 9.51139C106.85 9.40101 106.472 9.34583 106.04 9.34583C105.445 9.34583 104.959 9.48379 104.608 9.73212C104.257 9.98046 104.068 10.4219 104.068 11.0566V16.6304C104.068 17.5133 104.23 18.3135 104.527 18.9758C104.851 19.638 105.256 20.1899 105.797 20.6313C106.337 21.0728 106.985 21.4039 107.714 21.6247C108.443 21.8454 109.226 21.9558 110.09 21.9558C110.928 21.9558 111.738 21.8454 112.467 21.6247C113.223 21.4039 113.844 21.0728 114.384 20.6313C114.925 20.1899 115.357 19.638 115.654 18.9758C115.951 18.3135 116.113 17.5409 116.113 16.6304V9.70454C116.005 9.67694 115.789 9.62176 115.438 9.51139C115.087 9.40101 114.709 9.34583 114.276 9.34583C113.682 9.34583 113.196 9.48379 112.845 9.73212C112.494 9.98046 112.305 10.4219 112.305 11.0566V15.9129C112.305 17.5961 111.576 18.4239 110.09 18.4239Z" fill="#00B3FF"/>
<path d="M119.975 17.8995C120.11 18.0098 120.299 18.1202 120.596 18.2582C120.893 18.3961 121.244 18.5341 121.649 18.6445C122.054 18.7548 122.514 18.8652 123.027 18.948C123.54 19.0308 124.08 19.086 124.647 19.086C125.295 19.086 125.781 19.0308 126.105 18.8928C126.429 18.7824 126.591 18.5617 126.591 18.2582C126.591 17.9271 126.456 17.7063 126.186 17.5959C125.916 17.4856 125.484 17.3752 124.89 17.2924L123.648 17.1545C123.027 17.0717 122.433 16.9613 121.865 16.7957C121.298 16.6302 120.785 16.4094 120.353 16.1059C119.921 15.8024 119.57 15.4161 119.327 14.947C119.084 14.4779 118.949 13.8985 118.949 13.1811C118.949 12.574 119.057 12.0222 119.273 11.5255C119.489 11.0288 119.813 10.5873 120.272 10.201C120.731 9.81473 121.325 9.51121 122.027 9.31806C122.73 9.09732 123.594 8.98694 124.566 8.98694C125.565 8.98694 126.402 9.04212 127.132 9.18009C127.861 9.31805 128.455 9.51121 128.995 9.78714C129.292 9.95269 129.535 10.1458 129.724 10.3666C129.913 10.5873 129.994 10.8909 129.994 11.222C129.994 11.4703 129.94 11.7186 129.832 11.9118C129.724 12.1049 129.616 12.2981 129.481 12.4361C129.346 12.574 129.211 12.6844 129.103 12.7672C128.995 12.85 128.914 12.9051 128.887 12.9051C128.854 12.871 128.789 12.8264 128.7 12.7647C128.645 12.7266 128.581 12.6819 128.509 12.6292C128.293 12.4912 128.023 12.3809 127.645 12.2429C127.294 12.1325 126.862 12.0222 126.375 11.9118C125.889 11.8014 125.322 11.7738 124.674 11.7738C123.972 11.7738 123.459 11.8566 123.189 12.0222C122.919 12.1877 122.784 12.4085 122.784 12.6844C122.784 12.9603 122.919 13.1535 123.162 13.2638C123.405 13.3742 123.783 13.4846 124.296 13.5674L126.456 13.8709C126.997 13.9537 127.51 14.064 127.996 14.2296C128.482 14.3952 128.941 14.6159 129.319 14.8918C129.697 15.1954 130.021 15.5541 130.237 15.9956C130.453 16.437 130.588 16.9889 130.588 17.6511C130.588 19.0032 130.075 20.0517 129.076 20.8243C128.077 21.5693 126.673 21.9556 124.89 21.9556C123.972 21.9556 123.135 21.9004 122.406 21.7625C121.676 21.6245 121.082 21.4865 120.542 21.321C120.029 21.1554 119.597 20.9623 119.273 20.7967C119.04 20.6578 118.863 20.5475 118.731 20.4656C118.68 20.4337 118.636 20.4061 118.598 20.3828L119.975 17.8995Z" fill="#00B3FF"/>
</svg>
