<svg xmlns="http://www.w3.org/2000/svg" width="1280" height="820" viewBox="0 0 1280 820">
<defs>
  <style>
    .bg { fill: #fbfbfd; }
    .title { font: 700 22px Inter, Arial, sans-serif; fill: #202124; }
    .subtitle { font: 13px Inter, Arial, sans-serif; fill: #5f6368; }
    .section { font: 700 15px Inter, Arial, sans-serif; fill: #202124; }
    .node-title { font: 700 13px Inter, Arial, sans-serif; fill: #202124; }
    .node-text { font: 12px Inter, Arial, sans-serif; fill: #3f454b; }
    .small { font: 11px Inter, Arial, sans-serif; fill: #5f6368; }
    .mono { font: 12px ui-monospace, SFMono-Regular, Menlo, Consolas, monospace; fill: #2f3437; }
    .tree-edge { stroke: #5f6368; stroke-width: 1.6; fill: none; }
  </style>
</defs>

<rect class="bg" x="0" y="0" width="1280" height="820"/>
<text class="title" x="32" y="36">Query Plan Tree</text>
<text class="subtitle" x="32" y="59">partition 466287752447756104 - collection 466287752447756041 - 10 sealed segments - nq=1</text>

<rect x="450" y="86" width="380" height="78" rx="8" fill="#eef3fb" stroke="#4e79a7" stroke-width="1.5"/>
<text class="node-title" x="472" y="115">SearchWithRequery</text>
<text class="node-text" x="472" y="139">two plan trees used by this search request</text>

<line class="tree-edge" x1="640" y1="164" x2="640" y2="200"/>
<line class="tree-edge" x1="280" y1="200" x2="1000" y2="200"/>
<line class="tree-edge" x1="280" y1="200" x2="280" y2="232"/>
<line class="tree-edge" x1="1000" y1="200" x2="1000" y2="232"/>

<text class="section" x="220" y="222">Search Plan</text>
<text class="section" x="942" y="222">Requery Plan</text>

<rect x="100" y="232" width="360" height="92" rx="8" fill="#fdebec" stroke="#e15759" stroke-width="1.5"/>
<text class="node-title" x="122" y="259">VectorSearchNode</text>
<text class="node-text" x="122" y="283">root operator</text>
<text class="mono" x="122" y="304">field104 / SparseFloatVector / BM25 / topK=10</text>

<line class="tree-edge" x1="280" y1="324" x2="280" y2="364"/>

<rect x="100" y="364" width="360" height="86" rx="8" fill="#f2eef8" stroke="#b07aa1" stroke-width="1.5"/>
<text class="node-title" x="122" y="391">MvccNode</text>
<text class="node-text" x="122" y="415">source node of VectorSearchNode</text>
<text class="mono" x="122" y="436">timestamp: 466305240750620687</text>

<line class="tree-edge" x1="280" y1="450" x2="280" y2="490"/>

<rect x="100" y="490" width="360" height="88" rx="8" fill="#fff3e0" stroke="#f28e2b" stroke-width="1.5"/>
<text class="node-title" x="122" y="517">FilterBitsNode</text>
<text class="node-text" x="122" y="541">source node of MvccNode</text>
<text class="mono" x="122" y="562">active_count: 5000</text>

<line class="tree-edge" x1="280" y1="578" x2="280" y2="618"/>

<rect x="100" y="618" width="360" height="82" rx="8" fill="#fff3e0" stroke="#f28e2b" stroke-width="1.5"/>
<text class="node-title" x="122" y="645">AND / PhyConjunctFilterExpr</text>
<text class="node-text" x="122" y="669">compiled from PlanProto LogicalBinaryExpr</text>
<text class="small" x="122" y="688">Plan order: left field102, right field101</text>

<line class="tree-edge" x1="280" y1="700" x2="280" y2="728"/>
<line class="tree-edge" x1="90" y1="728" x2="470" y2="728"/>
<line class="tree-edge" x1="90" y1="728" x2="90" y2="748"/>
<line class="tree-edge" x1="470" y1="728" x2="470" y2="748"/>

<rect x="32" y="748" width="296" height="56" rx="8" fill="#e9f7f6" stroke="#76b7b2" stroke-width="1.5"/>
<text class="node-title" x="52" y="773">UnaryRangeFilterExpr</text>
<text class="mono" x="52" y="795">field102: VARCHAR PrefixMatch "partition"</text>

<rect x="360" y="748" width="296" height="56" rx="8" fill="#fff3e0" stroke="#f28e2b" stroke-width="1.5"/>
<text class="node-title" x="380" y="773">UnaryRangeFilterExpr</text>
<text class="mono" x="380" y="795">field101: INT64 GreaterEqual 0</text>

<rect x="820" y="232" width="360" height="90" rx="8" fill="#e8f2fb" stroke="#4e79a7" stroke-width="1.5"/>
<text class="node-title" x="842" y="259">QueryPlanNode</text>
<text class="node-text" x="842" y="283">Requery / Retrieve plan</text>
<text class="mono" x="842" y="304">limit = len(unique_ids)</text>

<line class="tree-edge" x1="1000" y1="322" x2="1000" y2="364"/>

<rect x="820" y="364" width="360" height="86" rx="8" fill="#e9f7f6" stroke="#76b7b2" stroke-width="1.5"/>
<text class="node-title" x="842" y="391">TermExpr</text>
<text class="node-text" x="842" y="415">primary key lookup generated by CreateRequeryPlan</text>
<text class="mono" x="842" y="436">field100: id / INT64 / is_primary_key</text>

<line class="tree-edge" x1="1000" y1="450" x2="1000" y2="490"/>

<rect x="820" y="490" width="360" height="86" rx="8" fill="#f7f7f7" stroke="#bab0ac" stroke-width="1.5"/>
<text class="node-title" x="842" y="517">Values</text>
<text class="node-text" x="842" y="541">ids merged from search results</text>
<text class="mono" x="842" y="562">GenericValue_Int64Val[]</text>

</svg>
