<svg xmlns="http://www.w3.org/2000/svg" width="1320" height="512" viewBox="0 0 1320 512">
<defs>
  <style>
    .bg { fill: #fbfbfd; }
    .title { font: 700 22px Inter, Arial, sans-serif; fill: #202124; }
    .subtitle { font: 13px Inter, Arial, sans-serif; fill: #5f6368; }
    .axis { font: 12px Inter, Arial, sans-serif; fill: #5f6368; }
    .seg { font: 12px ui-monospace, SFMono-Regular, Menlo, Consolas, monospace; fill: #2f3437; }
    .small { font: 11px Inter, Arial, sans-serif; fill: #5f6368; }
    .barlabel { font: 10px Inter, Arial, sans-serif; fill: white; font-weight: 650; pointer-events: none; }
    .grid { stroke: #e3e6ea; stroke-width: 1; }
    .grid-strong { stroke: #cbd1d8; stroke-width: 1; }
    .rowline { stroke: #edf0f3; stroke-width: 1; }
    .search-line { stroke: #1f2937; stroke-width: 2; stroke-dasharray: 6 5; }
    .phase-line { stroke: #a9b0b8; stroke-width: 1; stroke-dasharray: 3 5; }
  </style>
</defs>
<rect class="bg" x="0" y="0" width="1320" height="512"/>
<text class="title" x="28" y="34">Segment Search Timeline</text>
<text class="subtitle" x="28" y="57">only stages &gt; 0ms · rows sorted by initial search finish</text>

<rect x="28" y="78" width="14" height="14" rx="3" fill="#4e79a7"/>
<text class="small" x="48" y="89">idx102</text>
<rect x="140" y="78" width="14" height="14" rx="3" fill="#f28e2b"/>
<text class="small" x="160" y="89">idx101</text>
<rect x="252" y="78" width="14" height="14" rx="3" fill="#59a14f"/>
<text class="small" x="272" y="89">cg_0</text>
<rect x="364" y="78" width="14" height="14" rx="3" fill="#e15759"/>
<text class="small" x="384" y="89">idx104/vector</text>
<rect x="502" y="78" width="14" height="14" rx="3" fill="#b07aa1"/>
<text class="small" x="522" y="89">BF lazy</text>
<rect x="614" y="78" width="14" height="14" rx="3" fill="#76b7b2"/>
<text class="small" x="634" y="89">cg_1 requery</text>
<line class="grid-strong" x1="190.0" y1="84" x2="190.0" y2="428"/>
<text class="axis" x="190.0" y="74" text-anchor="middle">0ms</text>
<line class="grid" x1="276.9" y1="84" x2="276.9" y2="428"/>
<line class="grid-strong" x1="363.8" y1="84" x2="363.8" y2="428"/>
<text class="axis" x="363.8" y="74" text-anchor="middle">200ms</text>
<line class="grid" x1="450.7" y1="84" x2="450.7" y2="428"/>
<line class="grid-strong" x1="537.5" y1="84" x2="537.5" y2="428"/>
<text class="axis" x="537.5" y="74" text-anchor="middle">400ms</text>
<line class="grid" x1="624.4" y1="84" x2="624.4" y2="428"/>
<line class="grid-strong" x1="711.3" y1="84" x2="711.3" y2="428"/>
<text class="axis" x="711.3" y="74" text-anchor="middle">600ms</text>
<line class="grid" x1="798.2" y1="84" x2="798.2" y2="428"/>
<line class="grid-strong" x1="885.1" y1="84" x2="885.1" y2="428"/>
<text class="axis" x="885.1" y="74" text-anchor="middle">800ms</text>
<line class="grid" x1="972.0" y1="84" x2="972.0" y2="428"/>
<line class="grid-strong" x1="1058.9" y1="84" x2="1058.9" y2="428"/>
<text class="axis" x="1058.9" y="74" text-anchor="middle">1000ms</text>
<line class="grid" x1="1145.7" y1="84" x2="1145.7" y2="428"/>
<line class="grid-strong" x1="1232.6" y1="84" x2="1232.6" y2="428"/>
<text class="axis" x="1232.6" y="74" text-anchor="middle">1200ms</text>
<line class="search-line" x1="806.9" y1="56" x2="806.9" y2="436"/>
<text class="axis" x="812.9" y="53" font-weight="700">search done +710ms</text>
<line class="phase-line" x1="1159.6" y1="84" x2="1159.6" y2="436"/>
<text class="axis" x="1165.6" y="456">requery cg_1 +1116ms</text>
<line class="rowline" x1="28" y1="117" x2="1292" y2="117"/>
<text class="seg" x="28" y="107">466287752450964524</text>
<text class="small" x="150" y="107">end 476ms</text>
<rect x="190.9" y="92.0" width="94.7" height="20" rx="4" fill="#4e79a7">
<title>466287752450964524 · idx102: 1ms → 110ms (109.000ms)</title></rect>
<text class="barlabel" x="238.2" y="106.0" text-anchor="middle">i102</text>
<text class="small" x="238.2" y="123.0" text-anchor="middle">109ms</text>
<rect x="286.4" y="92.0" width="178.1" height="20" rx="4" fill="#f28e2b">
<title>466287752450964524 · idx101: 111ms → 316ms (205.000ms)</title></rect>
<text class="barlabel" x="375.5" y="106.0" text-anchor="middle">i101</text>
<text class="small" x="375.5" y="123.0" text-anchor="middle">205ms</text>
<rect x="466.3" y="92.0" width="52.1" height="20" rx="4" fill="#59a14f">
<title>466287752450964524 · cg_0: 318ms → 378ms (60.000ms)</title></rect>
<text class="barlabel" x="492.4" y="106.0" text-anchor="middle">cg_0</text>
<rect x="519.3" y="92.0" width="84.3" height="20" rx="4" fill="#e15759">
<title>466287752450964524 · idx104/vector: 379ms → 476ms (97.000ms)</title></rect>
<text class="barlabel" x="561.4" y="106.0" text-anchor="middle">i104</text>
<text class="small" x="561.4" y="123.0" text-anchor="middle">97ms</text>
<rect x="1125.9" y="92.0" width="32.8" height="20" rx="4" fill="#b07aa1">
<title>466287752450964524 · BF lazy: 1077.2ms → 1115ms (37.806ms)</title></rect>
<line class="rowline" x1="28" y1="151" x2="1292" y2="151"/>
<text class="seg" x="28" y="141">466287752450363255</text>
<text class="small" x="150" y="141">end 490ms</text>
<rect x="191.7" y="126.0" width="106.0" height="20" rx="4" fill="#4e79a7">
<title>466287752450363255 · idx102: 2ms → 124ms (122.000ms)</title></rect>
<text class="barlabel" x="244.7" y="140.0" text-anchor="middle">i102</text>
<text class="small" x="244.7" y="157.0" text-anchor="middle">122ms</text>
<rect x="297.7" y="126.0" width="175.5" height="20" rx="4" fill="#f28e2b">
<title>466287752450363255 · idx101: 124ms → 326ms (202.000ms)</title></rect>
<text class="barlabel" x="385.5" y="140.0" text-anchor="middle">i101</text>
<text class="small" x="385.5" y="157.0" text-anchor="middle">202ms</text>
<rect x="475.0" y="126.0" width="52.1" height="20" rx="4" fill="#59a14f">
<title>466287752450363255 · cg_0: 328ms → 388ms (60.000ms)</title></rect>
<text class="barlabel" x="501.0" y="140.0" text-anchor="middle">cg_0</text>
<rect x="528.0" y="126.0" width="87.8" height="20" rx="4" fill="#e15759">
<title>466287752450363255 · idx104/vector: 389ms → 490ms (101.000ms)</title></rect>
<text class="barlabel" x="571.9" y="140.0" text-anchor="middle">i104</text>
<text class="small" x="571.9" y="157.0" text-anchor="middle">101ms</text>
<rect x="1027.0" y="126.0" width="22.3" height="20" rx="4" fill="#b07aa1">
<title>466287752450363255 · BF lazy: 963.3ms → 989ms (25.699ms)</title></rect>
<line class="rowline" x1="28" y1="185" x2="1292" y2="185"/>
<text class="seg" x="28" y="175">466287752451565814</text>
<text class="small" x="150" y="175">end 513ms</text>
<rect x="191.7" y="160.0" width="139.9" height="20" rx="4" fill="#4e79a7">
<title>466287752451565814 · idx102: 2ms → 163ms (161.000ms)</title></rect>
<text class="barlabel" x="261.7" y="174.0" text-anchor="middle">i102</text>
<text class="small" x="261.7" y="191.0" text-anchor="middle">161ms</text>
<rect x="331.6" y="160.0" width="140.8" height="20" rx="4" fill="#f28e2b">
<title>466287752451565814 · idx101: 163ms → 325ms (162.000ms)</title></rect>
<text class="barlabel" x="402.0" y="174.0" text-anchor="middle">i101</text>
<text class="small" x="402.0" y="191.0" text-anchor="middle">162ms</text>
<rect x="474.1" y="160.0" width="52.1" height="20" rx="4" fill="#59a14f">
<title>466287752451565814 · cg_0: 327ms → 387ms (60.000ms)</title></rect>
<text class="barlabel" x="500.2" y="174.0" text-anchor="middle">cg_0</text>
<rect x="526.2" y="160.0" width="109.5" height="20" rx="4" fill="#e15759">
<title>466287752451565814 · idx104/vector: 387ms → 513ms (126.000ms)</title></rect>
<text class="barlabel" x="581.0" y="174.0" text-anchor="middle">i104</text>
<text class="small" x="581.0" y="191.0" text-anchor="middle">126ms</text>
<rect x="920.4" y="160.0" width="43.8" height="20" rx="4" fill="#b07aa1">
<title>466287752451565814 · BF lazy: 840.6ms → 891ms (50.433ms)</title></rect>
<text class="barlabel" x="942.3" y="174.0" text-anchor="middle">BF lazy</text>
<line class="rowline" x1="28" y1="219" x2="1292" y2="219"/>
<text class="seg" x="28" y="209">466287752447956258</text>
<text class="small" x="150" y="209">end 521ms</text>
<rect x="191.7" y="194.0" width="160.7" height="20" rx="4" fill="#4e79a7">
<title>466287752447956258 · idx102: 2ms → 187ms (185.000ms)</title></rect>
<text class="barlabel" x="272.1" y="208.0" text-anchor="middle">i102</text>
<text class="small" x="272.1" y="225.0" text-anchor="middle">185ms</text>
<rect x="353.3" y="194.0" width="166.0" height="20" rx="4" fill="#f28e2b">
<title>466287752447956258 · idx101: 188ms → 379ms (191.000ms)</title></rect>
<text class="barlabel" x="436.3" y="208.0" text-anchor="middle">i101</text>
<text class="small" x="436.3" y="225.0" text-anchor="middle">191ms</text>
<rect x="521.0" y="194.0" width="48.7" height="20" rx="4" fill="#59a14f">
<title>466287752447956258 · cg_0: 381ms → 437ms (56.000ms)</title></rect>
<text class="barlabel" x="545.4" y="208.0" text-anchor="middle">cg_0</text>
<rect x="569.7" y="194.0" width="73.0" height="20" rx="4" fill="#e15759">
<title>466287752447956258 · idx104/vector: 437ms → 521ms (84.000ms)</title></rect>
<text class="barlabel" x="606.2" y="208.0" text-anchor="middle">i104</text>
<text class="small" x="606.2" y="225.0" text-anchor="middle">84ms</text>
<rect x="988.9" y="194.0" width="37.8" height="20" rx="4" fill="#b07aa1">
<title>466287752447956258 · BF lazy: 919.5ms → 963ms (43.507ms)</title></rect>
<rect x="1159.6" y="194.0" width="71.2" height="20" rx="4" fill="#76b7b2">
<title>466287752447956258 · cg_1 requery: 1116ms → 1198ms (82.000ms)</title></rect>
<text class="barlabel" x="1195.3" y="208.0" text-anchor="middle">cg_1 requery</text>
<text class="small" x="1195.3" y="225.0" text-anchor="middle">82ms</text>
<line class="rowline" x1="28" y1="253" x2="1292" y2="253"/>
<text class="seg" x="28" y="243">466287752449760982</text>
<text class="small" x="150" y="243">end 521ms</text>
<rect x="190.9" y="228.0" width="151.2" height="20" rx="4" fill="#4e79a7">
<title>466287752449760982 · idx102: 1ms → 175ms (174.000ms)</title></rect>
<text class="barlabel" x="266.5" y="242.0" text-anchor="middle">i102</text>
<text class="small" x="266.5" y="259.0" text-anchor="middle">174ms</text>
<rect x="342.9" y="228.0" width="155.5" height="20" rx="4" fill="#f28e2b">
<title>466287752449760982 · idx101: 176ms → 355ms (179.000ms)</title></rect>
<text class="barlabel" x="420.7" y="242.0" text-anchor="middle">i101</text>
<text class="small" x="420.7" y="259.0" text-anchor="middle">179ms</text>
<rect x="500.2" y="228.0" width="76.5" height="20" rx="4" fill="#59a14f">
<title>466287752449760982 · cg_0: 357ms → 445ms (88.000ms)</title></rect>
<text class="barlabel" x="538.4" y="242.0" text-anchor="middle">cg_0</text>
<text class="small" x="538.4" y="259.0" text-anchor="middle">88ms</text>
<rect x="576.6" y="228.0" width="66.0" height="20" rx="4" fill="#e15759">
<title>466287752449760982 · idx104/vector: 445ms → 521ms (76.000ms)</title></rect>
<text class="barlabel" x="609.7" y="242.0" text-anchor="middle">i104</text>
<rect x="1096.3" y="228.0" width="29.5" height="20" rx="4" fill="#b07aa1">
<title>466287752449760982 · BF lazy: 1043.1ms → 1077ms (33.932ms)</title></rect>
<line class="rowline" x1="28" y1="287" x2="1292" y2="287"/>
<text class="seg" x="28" y="277">466287752447957059</text>
<text class="small" x="150" y="277">end 528ms</text>
<rect x="190.9" y="262.0" width="107.7" height="20" rx="4" fill="#4e79a7">
<title>466287752447957059 · idx102: 1ms → 125ms (124.000ms)</title></rect>
<text class="barlabel" x="244.7" y="276.0" text-anchor="middle">i102</text>
<text class="small" x="244.7" y="293.0" text-anchor="middle">124ms</text>
<rect x="298.6" y="262.0" width="199.8" height="20" rx="4" fill="#f28e2b">
<title>466287752447957059 · idx101: 125ms → 355ms (230.000ms)</title></rect>
<text class="barlabel" x="398.5" y="276.0" text-anchor="middle">i101</text>
<text class="small" x="398.5" y="293.0" text-anchor="middle">230ms</text>
<rect x="500.2" y="262.0" width="47.8" height="20" rx="4" fill="#59a14f">
<title>466287752447957059 · cg_0: 357ms → 412ms (55.000ms)</title></rect>
<text class="barlabel" x="524.1" y="276.0" text-anchor="middle">cg_0</text>
<rect x="548.0" y="262.0" width="100.8" height="20" rx="4" fill="#e15759">
<title>466287752447957059 · idx104/vector: 412ms → 528ms (116.000ms)</title></rect>
<text class="barlabel" x="598.4" y="276.0" text-anchor="middle">i104</text>
<text class="small" x="598.4" y="293.0" text-anchor="middle">116ms</text>
<rect x="1049.5" y="262.0" width="46.7" height="20" rx="4" fill="#b07aa1">
<title>466287752447957059 · BF lazy: 989.2ms → 1043ms (53.818ms)</title></rect>
<text class="barlabel" x="1072.8" y="276.0" text-anchor="middle">BF lazy</text>
<line class="rowline" x1="28" y1="321" x2="1292" y2="321"/>
<text class="seg" x="28" y="311">466287752449159710</text>
<text class="small" x="150" y="311">end 582ms</text>
<rect x="191.7" y="296.0" width="141.6" height="20" rx="4" fill="#4e79a7">
<title>466287752449159710 · idx102: 2ms → 165ms (163.000ms)</title></rect>
<text class="barlabel" x="262.5" y="310.0" text-anchor="middle">i102</text>
<text class="small" x="262.5" y="327.0" text-anchor="middle">163ms</text>
<rect x="334.2" y="296.0" width="155.5" height="20" rx="4" fill="#f28e2b">
<title>466287752449159710 · idx101: 166ms → 345ms (179.000ms)</title></rect>
<text class="barlabel" x="412.0" y="310.0" text-anchor="middle">i101</text>
<text class="small" x="412.0" y="327.0" text-anchor="middle">179ms</text>
<rect x="491.5" y="296.0" width="112.1" height="20" rx="4" fill="#59a14f">
<title>466287752449159710 · cg_0: 347ms → 476ms (129.000ms)</title></rect>
<text class="barlabel" x="547.5" y="310.0" text-anchor="middle">cg_0</text>
<text class="small" x="547.5" y="327.0" text-anchor="middle">129ms</text>
<rect x="603.6" y="296.0" width="92.1" height="20" rx="4" fill="#e15759">
<title>466287752449159710 · idx104/vector: 476ms → 582ms (106.000ms)</title></rect>
<text class="barlabel" x="649.6" y="310.0" text-anchor="middle">i104</text>
<text class="small" x="649.6" y="327.0" text-anchor="middle">106ms</text>
<rect x="897.4" y="296.0" width="22.4" height="20" rx="4" fill="#b07aa1">
<title>466287752449159710 · BF lazy: 814.2ms → 840ms (25.758ms)</title></rect>
<line class="rowline" x1="28" y1="355" x2="1292" y2="355"/>
<text class="seg" x="28" y="345">466287752450362427</text>
<text class="small" x="150" y="345">end 586ms</text>
<rect x="190.9" y="330.0" width="119.9" height="20" rx="4" fill="#4e79a7">
<title>466287752450362427 · idx102: 1ms → 139ms (138.000ms)</title></rect>
<text class="barlabel" x="250.8" y="344.0" text-anchor="middle">i102</text>
<text class="small" x="250.8" y="361.0" text-anchor="middle">138ms</text>
<rect x="311.6" y="330.0" width="209.4" height="20" rx="4" fill="#f28e2b">
<title>466287752450362427 · idx101: 140ms → 381ms (241.000ms)</title></rect>
<text class="barlabel" x="416.3" y="344.0" text-anchor="middle">i101</text>
<text class="small" x="416.3" y="361.0" text-anchor="middle">241ms</text>
<rect x="523.6" y="330.0" width="66.0" height="20" rx="4" fill="#59a14f">
<title>466287752450362427 · cg_0: 384ms → 460ms (76.000ms)</title></rect>
<text class="barlabel" x="556.7" y="344.0" text-anchor="middle">cg_0</text>
<rect x="589.7" y="330.0" width="109.5" height="20" rx="4" fill="#e15759">
<title>466287752450362427 · idx104/vector: 460ms → 586ms (126.000ms)</title></rect>
<text class="barlabel" x="644.4" y="344.0" text-anchor="middle">i104</text>
<text class="small" x="644.4" y="361.0" text-anchor="middle">126ms</text>
<rect x="964.2" y="330.0" width="25.1" height="20" rx="4" fill="#b07aa1">
<title>466287752450362427 · BF lazy: 891.1ms → 920ms (28.857ms)</title></rect>
<line class="rowline" x1="28" y1="389" x2="1292" y2="389"/>
<text class="seg" x="28" y="379">466287752452167002</text>
<text class="small" x="150" y="379">end 588ms</text>
<rect x="191.7" y="364.0" width="217.2" height="20" rx="4" fill="#4e79a7">
<title>466287752452167002 · idx102: 2ms → 252ms (250.000ms)</title></rect>
<text class="barlabel" x="300.3" y="378.0" text-anchor="middle">i102</text>
<text class="small" x="300.3" y="395.0" text-anchor="middle">250ms</text>
<rect x="409.8" y="364.0" width="152.9" height="20" rx="4" fill="#f28e2b">
<title>466287752452167002 · idx101: 253ms → 429ms (176.000ms)</title></rect>
<text class="barlabel" x="486.3" y="378.0" text-anchor="middle">i101</text>
<text class="small" x="486.3" y="395.0" text-anchor="middle">176ms</text>
<rect x="564.5" y="364.0" width="52.1" height="20" rx="4" fill="#59a14f">
<title>466287752452167002 · cg_0: 431ms → 491ms (60.000ms)</title></rect>
<text class="barlabel" x="590.5" y="378.0" text-anchor="middle">cg_0</text>
<rect x="616.6" y="364.0" width="84.3" height="20" rx="4" fill="#e15759">
<title>466287752452167002 · idx104/vector: 491ms → 588ms (97.000ms)</title></rect>
<text class="barlabel" x="658.7" y="378.0" text-anchor="middle">i104</text>
<text class="small" x="658.7" y="395.0" text-anchor="middle">97ms</text>
<rect x="807.6" y="364.0" width="53.2" height="20" rx="4" fill="#b07aa1">
<title>466287752452167002 · BF lazy: 710.8ms → 772ms (61.153ms)</title></rect>
<text class="barlabel" x="834.2" y="378.0" text-anchor="middle">BF lazy</text>
<line class="rowline" x1="28" y1="423" x2="1292" y2="423"/>
<text class="seg" x="28" y="413">466287752448558434</text>
<text class="small" x="150" y="413">end 709ms</text>
<rect x="191.7" y="398.0" width="139.9" height="20" rx="4" fill="#4e79a7">
<title>466287752448558434 · idx102: 2ms → 163ms (161.000ms)</title></rect>
<text class="barlabel" x="261.7" y="412.0" text-anchor="middle">i102</text>
<text class="small" x="261.7" y="429.0" text-anchor="middle">161ms</text>
<rect x="331.6" y="398.0" width="225.0" height="20" rx="4" fill="#f28e2b">
<title>466287752448558434 · idx101: 163ms → 422ms (259.000ms)</title></rect>
<text class="barlabel" x="444.1" y="412.0" text-anchor="middle">i101</text>
<text class="small" x="444.1" y="429.0" text-anchor="middle">259ms</text>
<rect x="558.4" y="398.0" width="166.8" height="20" rx="4" fill="#59a14f">
<title>466287752448558434 · cg_0: 424ms → 616ms (192.000ms)</title></rect>
<text class="barlabel" x="641.8" y="412.0" text-anchor="middle">cg_0</text>
<text class="small" x="641.8" y="429.0" text-anchor="middle">192ms</text>
<rect x="726.1" y="398.0" width="79.9" height="20" rx="4" fill="#e15759">
<title>466287752448558434 · idx104/vector: 617ms → 709ms (92.000ms)</title></rect>
<text class="barlabel" x="766.0" y="412.0" text-anchor="middle">i104</text>
<text class="small" x="766.0" y="429.0" text-anchor="middle">92ms</text>
<rect x="860.7" y="398.0" width="36.6" height="20" rx="4" fill="#b07aa1">
<title>466287752448558434 · BF lazy: 771.9ms → 814ms (42.054ms)</title></rect>
<text class="subtitle" x="28" y="482">Search critical tail: segment 466287752448558434 reaches +709ms. BF lazy and cg_1 requery occur after the initial search response.</text>
</svg>
